<?xml version="1.0" encoding="UTF-8" standalone="no"?>
<!-- Created with Inkscape (http://www.inkscape.org/) -->

<svg
   xmlns:dc="http://purl.org/dc/elements/1.1/"
   xmlns:cc="http://creativecommons.org/ns#"
   xmlns:rdf="http://www.w3.org/1999/02/22-rdf-syntax-ns#"
   xmlns:svg="http://www.w3.org/2000/svg"
   xmlns="http://www.w3.org/2000/svg"
   xmlns:sodipodi="http://sodipodi.sourceforge.net/DTD/sodipodi-0.dtd"
   xmlns:inkscape="http://www.inkscape.org/namespaces/inkscape"
   width="110.83346mm"
   height="30mm"
   viewBox="0 0 110.83346 29.999999"
   version="1.1"
   id="svg8"
   inkscape:version="0.92.1 r15371"
   sodipodi:docname="NBU logo.svg">
  <defs
     id="defs2">
    <clipPath
       id="clipPath30"
       clipPathUnits="userSpaceOnUse">
      <path
         inkscape:connector-curvature="0"
         id="path28"
         d="m 323.157,72.113 h 204.08 v 87.463 h -204.08 z" />
    </clipPath>
  </defs>
  <sodipodi:namedview
     id="base"
     pagecolor="#ffffff"
     bordercolor="#666666"
     borderopacity="1.0"
     inkscape:pageopacity="0.0"
     inkscape:pageshadow="2"
     inkscape:zoom="2.7452977"
     inkscape:cx="209.44905"
     inkscape:cy="56.692902"
     inkscape:document-units="mm"
     inkscape:current-layer="layer1"
     showgrid="false"
     fit-margin-top="0"
     fit-margin-left="0"
     fit-margin-right="0"
     fit-margin-bottom="0"
     inkscape:window-width="1280"
     inkscape:window-height="962"
     inkscape:window-x="-8"
     inkscape:window-y="-8"
     inkscape:window-maximized="1" />
  <metadata
     id="metadata5">
    <rdf:RDF>
      <cc:Work
         rdf:about="">
        <dc:format>image/svg+xml</dc:format>
        <dc:type
           rdf:resource="http://purl.org/dc/dcmitype/StillImage" />
        <dc:title></dc:title>
      </cc:Work>
    </rdf:RDF>
  </metadata>
  <g
     inkscape:label="Layer 1"
     inkscape:groupmode="layer"
     id="layer1"
     transform="translate(-91.390564,-147.59245)">
    <g
       id="g375"
       transform="matrix(1.9756469,0,0,1.9756469,-89.16491,-173.26752)">
      <path
         d="m 107.39194,167.93134 h -0.69744 v -2.55376 h -2.22321 v 2.55376 h -0.69426 v -5.52379 h 0.69426 v 2.37525 h 2.22321 v -2.37525 h 0.69744 z"
         style="fill:#4d4d4f;fill-opacity:1;fill-rule:nonzero;stroke:none;stroke-width:0.35277778"
         id="path22"
         inkscape:connector-curvature="0" />
      <path
         d="m 109.68168,167.40415 c 0.0921,0 0.17956,-0.013 0.26141,-0.0406 0.0825,-0.0272 0.15628,-0.0628 0.22401,-0.10654 0.0681,-0.043 0.12665,-0.0935 0.1771,-0.14922 0.0508,-0.0561 0.0917,-0.11395 0.12206,-0.17357 v -0.96379 h -0.34749 c -0.15945,0 -0.30303,0.0176 -0.43145,0.0519 -0.12841,0.0353 -0.23812,0.0854 -0.32843,0.15169 -0.0907,0.066 -0.16157,0.14747 -0.20885,0.24448 -0.049,0.0974 -0.0734,0.20849 -0.0734,0.33267 0,0.12241 0.0123,0.22437 0.0367,0.30833 0.0254,0.0832 0.0631,0.15028 0.11324,0.20143 0.0497,0.0512 0.11147,0.0875 0.18803,0.11007 0.0758,0.0222 0.16474,0.0332 0.26705,0.0332 m 0.88089,0.52705 c -0.0215,-0.0497 -0.0399,-0.11395 -0.0536,-0.19156 -0.0134,-0.0794 -0.0243,-0.16157 -0.0321,-0.24906 -0.0466,0.0699 -0.10089,0.13547 -0.16228,0.19791 -0.061,0.0621 -0.12947,0.11712 -0.20531,0.16475 -0.0759,0.0469 -0.15734,0.0847 -0.2466,0.11183 -0.0882,0.0272 -0.18203,0.0413 -0.28116,0.0413 -0.17745,0 -0.33725,-0.0254 -0.48048,-0.0751 -0.14323,-0.0497 -0.26635,-0.12418 -0.3676,-0.22366 -0.10265,-0.0995 -0.18097,-0.2226 -0.236,-0.36795 -0.0543,-0.1457 -0.0822,-0.31609 -0.0822,-0.51011 0,-0.19403 0.0335,-0.3736 0.1016,-0.53764 0.0667,-0.16404 0.16686,-0.30621 0.2981,-0.4258 0.13193,-0.11995 0.29739,-0.21343 0.49741,-0.28187 0.19932,-0.0684 0.43039,-0.10266 0.69462,-0.10266 h 0.45932 v -0.43003 c 0,-0.2413 -0.054,-0.4124 -0.16016,-0.51506 -0.10725,-0.10231 -0.27058,-0.15346 -0.49001,-0.15346 -0.10725,0 -0.2025,0.0169 -0.2861,0.0508 -0.0825,0.0339 -0.15346,0.079 -0.21026,0.13617 -0.0572,0.0579 -0.1016,0.12418 -0.13088,0.20003 -0.0296,0.0759 -0.0444,0.15593 -0.0444,0.24059 h -0.66181 c 0,-0.14428 0.0321,-0.28822 0.0952,-0.43074 0.0635,-0.14358 0.15452,-0.27199 0.2727,-0.38523 0.11818,-0.11324 0.26176,-0.20426 0.43109,-0.27411 0.16933,-0.0702 0.35913,-0.10478 0.56797,-0.10478 0.18697,0 0.35878,0.0222 0.514,0.0674 0.15487,0.0441 0.28998,0.11676 0.40287,0.21625 0.1136,0.10019 0.20144,0.22789 0.26388,0.38453 0.0621,0.15698 0.0931,0.34925 0.0931,0.57502 v 1.99108 c 0,0.0674 0.002,0.13829 0.008,0.21273 0.004,0.0741 0.012,0.14781 0.0236,0.22013 0.0106,0.0727 0.025,0.14217 0.0413,0.20779 0.0159,0.066 0.0332,0.12664 0.0536,0.18097 v 0.0596 z"
         style="fill:#4d4d4f;fill-opacity:1;fill-rule:nonzero;stroke:none;stroke-width:0.35277778"
         id="path34"
         inkscape:connector-curvature="0" />
      <path
         d="m 112.20686,163.89027 h 0.66428 v 3.47733 h 1.45979 v -3.47733 h 0.65829 v 3.47733 h 0.4258 l -0.0681,1.76248 h -0.58631 v -1.19874 h -2.55376 z"
         style="fill:#4d4d4f;fill-opacity:1;fill-rule:nonzero;stroke:none;stroke-width:0.35277778"
         id="path38"
         inkscape:connector-curvature="0" />
      <path
         inkscape:connector-curvature="0"
         id="path40"
         style="fill:#4d4d4f;fill-opacity:1;fill-rule:nonzero;stroke:none;stroke-width:0.35277778"
         d="m 116.87097,167.93124 h -0.6611 v -4.04107 h 0.6611 z m -0.69814,-5.11281 c 0,-0.11183 0.031,-0.20638 0.0931,-0.28363 0.0617,-0.0773 0.15628,-0.11607 0.2794,-0.11607 0.12524,0 0.21872,0.0392 0.28293,0.11783 0.0632,0.0787 0.0953,0.17251 0.0953,0.28187 0,0.11218 -0.0318,0.20532 -0.0935,0.2801 -0.0624,0.0748 -0.15769,0.11148 -0.28469,0.11148 -0.12312,0 -0.21766,-0.0367 -0.2794,-0.11148 -0.0621,-0.0748 -0.0931,-0.16792 -0.0931,-0.2801" />
      <path
         d="m 118.43195,166.10494 c 0,0.22472 0.0229,0.41945 0.0688,0.58596 0.0466,0.16757 0.10972,0.30586 0.19121,0.41699 0.0801,0.11077 0.17533,0.19367 0.28504,0.25012 0.11007,0.0564 0.23001,0.0836 0.35983,0.0836 0.59937,0 0.89924,-0.44555 0.89924,-1.33667 v -0.38135 c 0,-0.22084 -0.0229,-0.41557 -0.0691,-0.58244 -0.0455,-0.16651 -0.10936,-0.30586 -0.18979,-0.41804 -0.0811,-0.11254 -0.1778,-0.1965 -0.28822,-0.254 -0.11078,-0.0572 -0.23143,-0.0861 -0.36089,-0.0861 -0.1263,0 -0.24519,0.0289 -0.35384,0.0861 -0.10971,0.0575 -0.20461,0.14146 -0.28434,0.254 -0.0801,0.11218 -0.14252,0.25153 -0.18909,0.41804 -0.0459,0.16687 -0.0688,0.3616 -0.0688,0.58244 z m -0.66075,-0.38135 c 0,-0.31609 0.0402,-0.59267 0.12135,-0.83009 0.0804,-0.23812 0.19191,-0.43638 0.33197,-0.59619 0.14076,-0.15911 0.30585,-0.2794 0.4953,-0.36089 0.18944,-0.0804 0.39229,-0.12065 0.60819,-0.12065 0.22013,0 0.42545,0.0402 0.61665,0.12065 0.19121,0.0815 0.35807,0.20178 0.49918,0.36089 0.14041,0.15981 0.25083,0.35807 0.33197,0.59619 0.0811,0.23742 0.1217,0.514 0.1217,0.83009 v 0.38135 c 0,0.31362 -0.0406,0.58984 -0.1217,0.82762 -0.0811,0.23706 -0.19156,0.43603 -0.33197,0.59584 -0.14111,0.15875 -0.30621,0.27869 -0.4953,0.35807 -0.18944,0.0794 -0.39335,0.11959 -0.61172,0.11959 -0.22048,0 -0.42509,-0.0402 -0.61489,-0.11959 -0.19085,-0.0794 -0.35665,-0.19932 -0.49741,-0.35807 -0.14006,-0.15981 -0.25153,-0.35878 -0.33197,-0.59584 -0.0811,-0.23778 -0.12135,-0.514 -0.12135,-0.82762 z"
         style="fill:#4d4d4f;fill-opacity:1;fill-rule:nonzero;stroke:none;stroke-width:0.35277778"
         id="path44"
         inkscape:connector-curvature="0" />
      <path
         d="m 124.58711,167.93134 h -0.65758 v -1.72508 h -1.45626 v 1.72508 h -0.66464 v -4.04107 h 0.66464 v 1.75154 h 1.45626 v -1.75154 h 0.65758 z"
         style="fill:#4d4d4f;fill-opacity:1;fill-rule:nonzero;stroke:none;stroke-width:0.35277778"
         id="path48"
         inkscape:connector-curvature="0" />
      <path
         d="m 126.83931,167.40415 c 0.0914,0 0.17921,-0.013 0.26141,-0.0406 0.0815,-0.0272 0.15698,-0.0628 0.22401,-0.10654 0.0667,-0.043 0.12594,-0.0935 0.17674,-0.14922 0.0508,-0.0561 0.0917,-0.11395 0.12136,-0.17357 v -0.96379 h -0.34678 c -0.15981,0 -0.30268,0.0176 -0.43074,0.0519 -0.12912,0.0353 -0.23848,0.0854 -0.3295,0.15169 -0.09,0.066 -0.15981,0.14747 -0.20919,0.24448 -0.048,0.0974 -0.073,0.20849 -0.073,0.33267 0,0.12241 0.013,0.22437 0.0377,0.30833 0.0254,0.0832 0.0624,0.15028 0.11218,0.20143 0.0501,0.0512 0.11289,0.0875 0.18838,0.11007 0.0773,0.0222 0.16475,0.0332 0.26741,0.0332 m 0.88053,0.52705 c -0.0208,-0.0497 -0.0395,-0.11395 -0.0536,-0.19156 -0.013,-0.0794 -0.0236,-0.16157 -0.0321,-0.24906 -0.0466,0.0699 -0.10125,0.13547 -0.16193,0.19791 -0.061,0.0621 -0.12947,0.11712 -0.20602,0.16475 -0.0759,0.0469 -0.15734,0.0847 -0.24553,0.11183 -0.0893,0.0272 -0.18239,0.0413 -0.28258,0.0413 -0.17603,0 -0.33619,-0.0254 -0.47942,-0.0751 -0.14358,-0.0497 -0.2667,-0.12418 -0.3676,-0.22366 -0.1023,-0.0995 -0.18097,-0.2226 -0.2353,-0.36795 -0.055,-0.1457 -0.0832,-0.31609 -0.0832,-0.51011 0,-0.19403 0.0342,-0.3736 0.10195,-0.53764 0.0667,-0.16404 0.16616,-0.30621 0.2981,-0.4258 0.13193,-0.11995 0.29703,-0.21343 0.49635,-0.28187 0.20003,-0.0684 0.43216,-0.10266 0.69498,-0.10266 h 0.45896 v -0.43003 c 0,-0.2413 -0.0529,-0.4124 -0.16016,-0.51506 -0.10689,-0.10231 -0.27058,-0.15346 -0.4893,-0.15346 -0.1069,0 -0.20179,0.0169 -0.28575,0.0508 -0.0836,0.0339 -0.15346,0.079 -0.21132,0.13617 -0.0564,0.0579 -0.10019,0.12418 -0.13053,0.20003 -0.0293,0.0759 -0.0437,0.15593 -0.0437,0.24059 h -0.66181 c 0,-0.14428 0.0318,-0.28822 0.0956,-0.43074 0.0631,-0.14358 0.15381,-0.27199 0.27235,-0.38523 0.11818,-0.11324 0.2614,-0.20426 0.43144,-0.27411 0.16934,-0.0702 0.35843,-0.10478 0.56692,-0.10478 0.18732,0 0.35842,0.0222 0.51399,0.0674 0.15593,0.0441 0.29034,0.11676 0.40393,0.21625 0.11219,0.10019 0.20038,0.22789 0.26247,0.38453 0.0624,0.15698 0.0942,0.34925 0.0942,0.57502 v 1.99108 c 0,0.0674 0.002,0.13829 0.007,0.21273 0.005,0.0741 0.0134,0.14781 0.024,0.22013 0.012,0.0727 0.0258,0.14217 0.042,0.20779 0.0155,0.066 0.0346,0.12664 0.0543,0.18097 v 0.0596 z"
         style="fill:#4d4d4f;fill-opacity:1;fill-rule:nonzero;stroke:none;stroke-width:0.35277778"
         id="path52"
         inkscape:connector-curvature="0" />
      <path
         d="m 132.15348,163.89027 v 4.04107 h -0.66111 v -3.46957 h -1.06045 l -0.0374,1.15782 c -0.0152,0.38347 -0.043,0.71931 -0.0857,1.00859 -0.043,0.28857 -0.10901,0.52952 -0.19862,0.72178 -0.0889,0.19368 -0.20778,0.33867 -0.3563,0.43533 -0.14747,0.0974 -0.33585,0.14605 -0.56198,0.14605 h -0.18309 l 0.0152,-0.6163 0.127,-0.004 c 0.11218,0 0.20355,-0.0314 0.27411,-0.0952 0.0713,-0.0628 0.1277,-0.16263 0.17039,-0.29845 0.0423,-0.13618 0.0727,-0.31045 0.0907,-0.52494 0.0198,-0.21413 0.0356,-0.47166 0.0473,-0.77293 l 0.0632,-1.72932 z"
         style="fill:#4d4d4f;fill-opacity:1;fill-rule:nonzero;stroke:none;stroke-width:0.35277778"
         id="path56"
         inkscape:connector-curvature="0" />
      <path
         d="m 133.91952,165.84731 v 1.52012 h 0.82162 c 0.115,0 0.21131,-0.0205 0.28998,-0.0639 0.0783,-0.0423 0.14252,-0.0981 0.19015,-0.16722 0.0483,-0.0706 0.0843,-0.14993 0.10477,-0.23954 0.0215,-0.0896 0.0317,-0.18238 0.0317,-0.27622 0,-0.0896 -0.0102,-0.18027 -0.0317,-0.27305 -0.0205,-0.0921 -0.0564,-0.17463 -0.10477,-0.25012 -0.0476,-0.0751 -0.11183,-0.13511 -0.19015,-0.18098 -0.0787,-0.0459 -0.17498,-0.0691 -0.28998,-0.0691 z m 0,-0.56374 h 0.82162 c 0.20955,0 0.3937,0.0332 0.55139,0.0991 0.15769,0.066 0.2914,0.15593 0.39935,0.27199 0.10865,0.11642 0.18979,0.254 0.24482,0.41487 0.055,0.16087 0.0819,0.33549 0.0819,0.52458 0,0.18662 -0.0268,0.3616 -0.0819,0.52493 -0.055,0.16299 -0.13617,0.3041 -0.24482,0.42404 -0.10795,0.11924 -0.24166,0.21414 -0.39935,0.28399 -0.15769,0.0691 -0.34184,0.10407 -0.55139,0.10407 h -1.47884 v -4.04072 h 0.65722 z"
         style="fill:#4d4d4f;fill-opacity:1;fill-rule:nonzero;stroke:none;stroke-width:0.35277778"
         id="path60"
         inkscape:connector-curvature="0" />
      <path
         d="m 139.69757,167.93134 h -0.65722 v -1.72508 h -1.45733 v 1.72508 h -0.66463 v -4.04107 h 0.66463 v 1.75154 h 1.45733 v -1.75154 h 0.65722 z"
         style="fill:#4d4d4f;fill-opacity:1;fill-rule:nonzero;stroke:none;stroke-width:0.35277778"
         id="path64"
         inkscape:connector-curvature="0" />
      <path
         d="m 142.93547,163.89027 h 0.65722 v 4.04107 h -0.65722 v -2.94675 l -1.46403,2.94675 h -0.66075 v -4.04107 h 0.66075 v 2.95063 z"
         style="fill:#4d4d4f;fill-opacity:1;fill-rule:nonzero;stroke:none;stroke-width:0.35277778"
         id="path68"
         inkscape:connector-curvature="0" />
      <path
         d="m 147.21886,162.4187 c 0,0.14676 -0.0247,0.28187 -0.0762,0.40358 -0.0512,0.12171 -0.12453,0.22719 -0.22225,0.31538 -0.0963,0.0885 -0.21449,0.15769 -0.35348,0.20743 -0.13688,0.0501 -0.29246,0.0748 -0.46391,0.0748 -0.17215,0 -0.32737,-0.0247 -0.46531,-0.0748 -0.13864,-0.0497 -0.25471,-0.11888 -0.35313,-0.20743 -0.0977,-0.0882 -0.17145,-0.19367 -0.22437,-0.31538 -0.0526,-0.12171 -0.0787,-0.25682 -0.0787,-0.40358 h 0.56445 c 0,0.0744 0.0109,0.1457 0.03,0.21343 0.0198,0.0667 0.0519,0.12629 0.0949,0.17674 0.0441,0.0511 0.10195,0.0914 0.17216,0.12136 0.0713,0.03 0.15769,0.0448 0.25999,0.0448 0.0988,0 0.18415,-0.0148 0.25542,-0.0448 0.0716,-0.03 0.12876,-0.0702 0.17391,-0.12136 0.0452,-0.0505 0.0773,-0.11006 0.097,-0.17674 0.0198,-0.0677 0.03,-0.13899 0.03,-0.21343 z m -0.38841,1.47144 h 0.65758 v 4.04142 h -0.65758 v -2.94675 l -1.46367,2.94675 h -0.66111 v -4.04142 h 0.66111 v 2.95063 z"
         style="fill:#4d4d4f;fill-opacity:1;fill-rule:nonzero;stroke:none;stroke-width:0.35277778"
         id="path72"
         inkscape:connector-curvature="0" />
      <path
         d="m 105.31412,172.79703 c -0.14922,0 -0.27764,0.0346 -0.38559,0.10231 -0.10865,0.0684 -0.1979,0.16086 -0.2667,0.27587 -0.0709,0.11641 -0.1217,0.25082 -0.15381,0.40428 -0.0328,0.15275 -0.0487,0.31291 -0.0487,0.47943 v 0.0864 c 0,0.18909 0.0159,0.369 0.0487,0.53939 0.0321,0.1704 0.0829,0.31997 0.15381,0.44838 0.0688,0.12842 0.15805,0.23002 0.2667,0.30551 0.10795,0.0762 0.23813,0.11395 0.39018,0.11395 0.15134,0 0.28222,-0.0378 0.39017,-0.11395 0.1083,-0.0755 0.19791,-0.17709 0.26881,-0.30551 0.0709,-0.12841 0.12383,-0.27798 0.15629,-0.44838 0.0339,-0.17039 0.0504,-0.3503 0.0504,-0.53939 v -0.0864 c 0,-0.16652 -0.0166,-0.32668 -0.0504,-0.47943 -0.0325,-0.15346 -0.0854,-0.28787 -0.15629,-0.40428 -0.0709,-0.11501 -0.16121,-0.20744 -0.27058,-0.27587 -0.11042,-0.0677 -0.24094,-0.10231 -0.39299,-0.10231 m 0.13511,-0.56797 c 0.2219,0 0.41875,0.0466 0.59196,0.13758 0.17322,0.0931 0.31856,0.22155 0.4371,0.38559 0.11782,0.16404 0.20814,0.35771 0.27022,0.58032 0.0628,0.2226 0.0938,0.46531 0.0938,0.72637 v 0.0864 c 0,0.28151 -0.0339,0.54186 -0.10089,0.78246 -0.0674,0.23989 -0.16651,0.44803 -0.29739,0.62371 -0.13018,0.17568 -0.29069,0.31291 -0.47908,0.41204 -0.18873,0.0998 -0.40498,0.14993 -0.64628,0.14993 -0.2413,0 -0.45615,-0.0501 -0.64418,-0.14993 -0.18838,-0.0991 -0.34783,-0.23636 -0.47836,-0.41204 -0.13018,-0.17568 -0.23037,-0.38382 -0.29881,-0.62371 -0.0688,-0.2406 -0.10301,-0.50095 -0.10301,-0.78246 v -0.0864 -0.0261 -0.25753 c 0,-0.45755 0.0385,-0.85901 0.11395,-1.20262 0.0769,-0.3436 0.18203,-0.635 0.31785,-0.87418 0.13547,-0.23848 0.29669,-0.42792 0.48543,-0.56762 0.18838,-0.13935 0.39511,-0.23495 0.62159,-0.28716 0.1076,-0.0247 0.20673,-0.0522 0.29916,-0.0822 0.0914,-0.03 0.17109,-0.0674 0.23918,-0.11289 0.067,-0.0444 0.11959,-0.0995 0.15663,-0.16545 0.0367,-0.066 0.0557,-0.14746 0.0557,-0.24412 h 0.53411 c 0,0.24342 -0.0339,0.43638 -0.1009,0.5782 -0.0667,0.14217 -0.15487,0.25294 -0.26282,0.33232 -0.10901,0.0808 -0.23071,0.13899 -0.36618,0.17815 -0.13547,0.0381 -0.2734,0.0762 -0.4124,0.11324 -0.13511,0.0353 -0.26352,0.0843 -0.38523,0.14746 -0.12206,0.0642 -0.23213,0.14923 -0.33055,0.25647 -0.0981,0.10689 -0.1831,0.23883 -0.254,0.39547 -0.0702,0.15698 -0.12277,0.34784 -0.15487,0.5715 0.13405,-0.17181 0.29351,-0.31151 0.47625,-0.42051 0.18274,-0.10866 0.39052,-0.16228 0.62194,-0.16228"
         style="fill:#4d4d4f;fill-opacity:1;fill-rule:nonzero;stroke:none;stroke-width:0.35277778"
         id="path76"
         inkscape:connector-curvature="0" />
      <path
         d="m 109.15805,175.5118 c 0.0917,0 0.17956,-0.0134 0.26176,-0.0409 0.0815,-0.0272 0.15699,-0.0632 0.22366,-0.10654 0.0677,-0.043 0.1263,-0.0931 0.1771,-0.14923 0.0515,-0.0561 0.0921,-0.1143 0.1217,-0.17392 v -0.96343 h -0.34713 c -0.15981,0 -0.30303,0.0169 -0.43109,0.0519 -0.12877,0.0353 -0.23777,0.0857 -0.32844,0.15169 -0.0917,0.0656 -0.16122,0.14746 -0.2099,0.24412 -0.0487,0.0977 -0.0723,0.2085 -0.0723,0.33338 0,0.12135 0.012,0.22437 0.0367,0.30762 0.0258,0.084 0.0628,0.15099 0.11183,0.20179 0.0508,0.0508 0.11324,0.0875 0.18979,0.11042 0.0759,0.0222 0.1644,0.0332 0.26635,0.0332 m 0.88159,0.52705 c -0.0222,-0.0501 -0.0406,-0.11395 -0.0536,-0.19262 -0.0141,-0.0783 -0.0243,-0.16086 -0.0328,-0.24871 -0.0473,0.0702 -0.10089,0.13618 -0.16192,0.19756 -0.0614,0.0631 -0.12912,0.11783 -0.20532,0.16475 -0.0759,0.0476 -0.15805,0.085 -0.24695,0.11289 -0.0875,0.0268 -0.18273,0.0406 -0.28186,0.0406 -0.17675,0 -0.33726,-0.0254 -0.48013,-0.0744 -0.14288,-0.0501 -0.266,-0.12418 -0.36725,-0.22401 -0.10265,-0.10019 -0.18097,-0.22296 -0.2353,-0.36795 -0.0554,-0.1457 -0.0825,-0.31574 -0.0825,-0.51012 0,-0.19403 0.0335,-0.37359 0.10125,-0.53728 0.067,-0.16439 0.16686,-0.30621 0.2988,-0.42615 0.13194,-0.1196 0.29669,-0.21343 0.49671,-0.28187 0.19862,-0.0688 0.43039,-0.10301 0.69427,-0.10301 h 0.45931 v -0.42933 c 0,-0.2413 -0.0533,-0.41346 -0.16086,-0.51577 -0.10689,-0.10195 -0.26952,-0.1531 -0.4886,-0.1531 -0.10724,0 -0.20285,0.0173 -0.28575,0.0508 -0.084,0.0332 -0.15416,0.0787 -0.21167,0.13617 -0.0564,0.0571 -0.10054,0.12418 -0.12946,0.20003 -0.0303,0.0755 -0.0452,0.15557 -0.0452,0.24024 h -0.66181 c 0,-0.14394 0.0314,-0.28752 0.0956,-0.43074 0.0635,-0.14323 0.15417,-0.27094 0.2727,-0.38453 0.11853,-0.11395 0.26141,-0.20461 0.43145,-0.27517 0.16862,-0.0695 0.35842,-0.10442 0.56761,-0.10442 0.18662,0 0.35737,0.0229 0.51435,0.0674 0.15523,0.0445 0.28928,0.11712 0.40217,0.21696 0.11395,0.0995 0.20144,0.22719 0.26353,0.38453 0.0624,0.15698 0.0938,0.34889 0.0938,0.57502 v 1.99073 c 0,0.0677 0.002,0.13793 0.007,0.21308 0.005,0.0744 0.0134,0.14816 0.0247,0.22013 0.0106,0.0723 0.0236,0.14146 0.0409,0.20743 0.0155,0.066 0.0346,0.1263 0.054,0.18133 v 0.0596 z"
         style="fill:#4d4d4f;fill-opacity:1;fill-rule:nonzero;stroke:none;stroke-width:0.35277778"
         id="path80"
         inkscape:connector-curvature="0" />
      <path
         d="m 114.80553,176.03874 h -0.65722 v -1.72579 h -1.45627 v 1.72579 h -0.66499 v -4.04072 h 0.66499 v 1.75119 h 1.45627 v -1.75119 h 0.65722 z"
         style="fill:#4d4d4f;fill-opacity:1;fill-rule:nonzero;stroke:none;stroke-width:0.35277778"
         id="path84"
         inkscape:connector-curvature="0" />
      <path
         d="m 117.30154,174.31711 h -0.37359 v 1.72156 h -0.66146 v -4.04072 h 0.66146 v 1.70991 h 0.32808 l 1.10243,-1.70991 h 0.7874 l -1.34796,1.92334 1.44533,2.11738 h -0.82903 z"
         style="fill:#4d4d4f;fill-opacity:1;fill-rule:nonzero;stroke:none;stroke-width:0.35277778"
         id="path88"
         inkscape:connector-curvature="0" />
      <path
         d="m 123.64498,173.60948 0.98566,-3.09527 h 0.80469 l -1.58997,4.60128 c -0.0504,0.12876 -0.10407,0.25365 -0.16157,0.37394 -0.0564,0.11995 -0.12665,0.22649 -0.20991,0.32068 -0.0829,0.0935 -0.18626,0.16827 -0.30586,0.22366 -0.11923,0.055 -0.27022,0.0836 -0.45331,0.0836 -0.0265,0 -0.0582,-0.001 -0.0921,-0.004 -0.0346,-0.003 -0.0677,-0.005 -0.0995,-0.008 -0.0314,-0.002 -0.0593,-0.006 -0.0847,-0.009 -0.025,-0.005 -0.043,-0.009 -0.0533,-0.0138 l 0.0148,-0.57643 c 0.01,0.002 0.0296,0.004 0.0561,0.005 0.0296,10e-4 0.0575,0.003 0.0885,0.004 0.0296,7.1e-4 0.0596,0.002 0.0885,0.004 0.0289,7e-4 0.0515,0.002 0.0667,0.002 0.0836,0 0.15275,-0.0166 0.20708,-0.0508 0.0536,-0.0342 0.0995,-0.0787 0.13652,-0.13264 0.036,-0.0547 0.0677,-0.11642 0.0931,-0.18662 0.0247,-0.0684 0.0487,-0.139 0.0713,-0.2099 l 0.11042,-0.3302 -1.51765,-4.09681 h 0.77364 z"
         style="fill:#4d4d4f;fill-opacity:1;fill-rule:nonzero;stroke:none;stroke-width:0.35277778"
         id="path92"
         inkscape:connector-curvature="0" />
      <path
         d="m 127.23086,174.31711 h -0.37359 v 1.72156 h -0.66217 v -4.04072 h 0.66217 v 1.70991 h 0.32843 l 1.10138,-1.70991 h 0.7881 l -1.34796,1.92334 1.44498,2.11738 h -0.82868 z"
         style="fill:#4d4d4f;fill-opacity:1;fill-rule:nonzero;stroke:none;stroke-width:0.35277778"
         id="path96"
         inkscape:connector-curvature="0" />
      <path
         d="m 132.41098,173.83501 c 0,-0.45332 -0.0706,-0.78811 -0.20849,-1.00259 -0.14005,-0.21626 -0.36372,-0.32315 -0.6731,-0.32315 -0.17145,0 -0.3175,0.0445 -0.43462,0.13229 -0.11889,0.0885 -0.21379,0.2025 -0.28575,0.3422 v 2.10255 c 0.072,0.13653 0.16545,0.24836 0.2801,0.33444 0.11395,0.0854 0.26317,0.12841 0.44732,0.12841 0.30233,0 0.52247,-0.10901 0.66323,-0.32844 0.14075,-0.21978 0.21131,-0.55527 0.21131,-1.00824 z m 0.65722,0.37747 c 0,0.63994 -0.1143,1.1169 -0.34536,1.43087 -0.23037,0.31256 -0.55563,0.47025 -0.97685,0.47025 -0.21166,0 -0.3937,-0.0395 -0.54715,-0.11818 -0.15311,-0.0783 -0.28328,-0.19226 -0.38982,-0.34149 v 1.93852 h -0.65758 v -5.59435 h 0.5976 l 0.0339,0.44767 c 0.10654,-0.16933 0.23813,-0.2988 0.3937,-0.38876 0.15593,-0.0889 0.34184,-0.13441 0.55774,-0.13441 0.21696,0 0.40852,0.0374 0.57432,0.11183 0.16475,0.0755 0.30445,0.19015 0.41522,0.34572 0.11289,0.15629 0.19862,0.35455 0.25683,0.59585 0.0582,0.2413 0.0875,0.5281 0.0875,0.85901 z"
         style="fill:#4d4d4f;fill-opacity:1;fill-rule:nonzero;stroke:none;stroke-width:0.35277778"
         id="path100"
         inkscape:connector-curvature="0" />
      <path
         d="m 135.46257,175.5118 c 0.0917,0 0.17921,-0.0134 0.26141,-0.0409 0.0822,-0.0272 0.15769,-0.0632 0.22401,-0.10654 0.0681,-0.043 0.12665,-0.0931 0.17815,-0.14923 0.0512,-0.0561 0.0903,-0.1143 0.12065,-0.17392 v -0.96343 h -0.34713 c -0.15981,0 -0.30339,0.0169 -0.43109,0.0519 -0.12912,0.0353 -0.23742,0.0857 -0.32879,0.15169 -0.0903,0.0656 -0.16087,0.14746 -0.20955,0.24412 -0.0483,0.0977 -0.0723,0.2085 -0.0723,0.33338 0,0.12135 0.0116,0.22437 0.037,0.30762 0.0247,0.084 0.0624,0.15099 0.11183,0.20179 0.0505,0.0508 0.11289,0.0875 0.18838,0.11042 0.0773,0.0222 0.1651,0.0332 0.26741,0.0332 m 0.88159,0.52705 c -0.0222,-0.0501 -0.0406,-0.11395 -0.0547,-0.19262 -0.013,-0.0783 -0.0233,-0.16086 -0.0314,-0.24871 -0.0469,0.0702 -0.10124,0.13618 -0.16227,0.19756 -0.0617,0.0631 -0.12983,0.11783 -0.20532,0.16475 -0.0755,0.0476 -0.15805,0.085 -0.24659,0.11289 -0.0885,0.0268 -0.18239,0.0406 -0.28152,0.0406 -0.1778,0 -0.3369,-0.0254 -0.48048,-0.0744 -0.14323,-0.0501 -0.26564,-0.12418 -0.3676,-0.22401 -0.10265,-0.10019 -0.18062,-0.22296 -0.236,-0.36795 -0.054,-0.1457 -0.0819,-0.31574 -0.0819,-0.51012 0,-0.19403 0.0346,-0.37359 0.10125,-0.53728 0.0667,-0.16439 0.16686,-0.30621 0.29915,-0.42615 0.13194,-0.1196 0.29634,-0.21343 0.49636,-0.28187 0.19932,-0.0688 0.43004,-0.10301 0.69427,-0.10301 h 0.45931 v -0.42933 c 0,-0.2413 -0.0536,-0.41346 -0.1598,-0.51577 -0.10725,-0.10195 -0.27094,-0.1531 -0.48931,-0.1531 -0.1083,0 -0.20249,0.0173 -0.28575,0.0508 -0.084,0.0332 -0.15416,0.0787 -0.21202,0.13617 -0.0564,0.0571 -0.10018,0.12418 -0.12946,0.20003 -0.0303,0.0755 -0.0455,0.15557 -0.0455,0.24024 h -0.66111 c 0,-0.14394 0.0314,-0.28752 0.0956,-0.43074 0.0635,-0.14323 0.15382,-0.27094 0.27235,-0.38453 0.11783,-0.11395 0.26141,-0.20461 0.43074,-0.27517 0.16933,-0.0695 0.35878,-0.10442 0.56762,-0.10442 0.18732,0 0.35842,0.0229 0.51435,0.0674 0.15557,0.0445 0.29034,0.11712 0.40322,0.21696 0.11325,0.0995 0.20109,0.22719 0.26318,0.38453 0.0628,0.15698 0.0935,0.34889 0.0935,0.57502 v 1.99073 c 0,0.0677 0.002,0.13793 0.008,0.21308 0.004,0.0744 0.0131,0.14816 0.024,0.22013 0.0109,0.0723 0.0243,0.14146 0.0413,0.20743 0.0162,0.066 0.0342,0.1263 0.054,0.18133 v 0.0596 z"
         style="fill:#4d4d4f;fill-opacity:1;fill-rule:nonzero;stroke:none;stroke-width:0.35277778"
         id="path104"
         inkscape:connector-curvature="0" />
      <path
         d="m 139.0819,170.92995 c 0,-0.11289 0.0339,-0.20673 0.10407,-0.28434 0.067,-0.0773 0.16792,-0.11536 0.30304,-0.11536 0.13476,0 0.23671,0.0381 0.30585,0.11536 0.0706,0.0776 0.10584,0.17145 0.10584,0.28434 0,0.11183 -0.0353,0.20496 -0.10584,0.28011 -0.0691,0.0744 -0.17109,0.11147 -0.30585,0.11147 -0.13512,0 -0.23601,-0.037 -0.30304,-0.11147 -0.0702,-0.0752 -0.10407,-0.16828 -0.10407,-0.28011 m -0.0956,5.10857 h -0.66217 v -4.04071 h 0.66217 z m -1.50989,-5.11633 c 0,-0.11254 0.0346,-0.20638 0.1023,-0.28152 0.0688,-0.0762 0.17004,-0.11465 0.3048,-0.11465 0.13441,0 0.23672,0.0385 0.30622,0.11465 0.0705,0.0751 0.10442,0.16898 0.10442,0.28152 0,0.11183 -0.0339,0.20532 -0.10442,0.2794 -0.0695,0.0751 -0.17181,0.11253 -0.30622,0.11253 -0.13476,0 -0.236,-0.0374 -0.3048,-0.11253 -0.0677,-0.0741 -0.1023,-0.16757 -0.1023,-0.2794"
         style="fill:#4d4d4f;fill-opacity:1;fill-rule:nonzero;stroke:none;stroke-width:0.35277778"
         id="path108"
         inkscape:connector-curvature="0" />
      <path
         d="m 143.25074,176.03874 h -0.65652 v -1.72579 h -1.45697 v 1.72579 h -0.66463 v -4.04072 h 0.66463 v 1.75119 h 1.45697 v -1.75119 h 0.65652 z"
         style="fill:#4d4d4f;fill-opacity:1;fill-rule:nonzero;stroke:none;stroke-width:0.35277778"
         id="path112"
         inkscape:connector-curvature="0" />
      <path
         d="m 146.83281,171.99799 h 0.65758 v 4.04072 h -0.65758 v -2.94676 l -1.46403,2.94676 h -0.6611 v -4.04072 h 0.6611 v 2.94993 z"
         style="fill:#4d4d4f;fill-opacity:1;fill-rule:nonzero;stroke:none;stroke-width:0.35277778"
         id="path116"
         inkscape:connector-curvature="0" />
      <path
         d="m 98.543358,170.36699 c -0.703086,1.53987 -1.135944,3.24026 -1.320447,5.19112 H 93.70113 c -0.09278,-1.32185 -0.267052,-3.21521 -1.15323,-5.19006 -0.181328,-0.40217 -0.386997,-0.8001 -0.612775,-1.18533 0.2286,-0.42863 0.435328,-0.86819 0.61595,-1.30987 0.629355,-1.53776 1.005416,-3.15136 1.148291,-4.92407 h 3.524603 c 0.157339,1.52365 0.620889,3.26178 1.315861,4.92654 0.183797,0.43886 0.390525,0.87736 0.617361,1.3074 -0.225072,0.38629 -0.430389,0.78387 -0.613833,1.18427 m 1.125361,-1.3021 c -0.244828,-0.45614 -0.468136,-0.92534 -0.66428,-1.39206 -0.710848,-1.7018 -1.171928,-3.4791 -1.298575,-5.0038 -0.01164,-0.13335 -0.12065,-0.23566 -0.252237,-0.23566 h -3.988505 c -0.131586,0 -0.242006,0.10407 -0.251883,0.23954 -0.12312,1.81116 -0.492478,3.44734 -1.128184,5.00168 -0.191911,0.46884 -0.414514,0.93627 -0.662516,1.38818 -0.04445,0.0825 -0.04233,0.18203 0.0049,0.26141 0.247297,0.40746 0.468841,0.83079 0.661105,1.25836 0.903464,2.01259 1.031522,3.88443 1.124656,5.25145 0.0099,0.13476 0.120297,0.23953 0.251883,0.23953 h 3.988505 c 0.131587,0 0.240595,-0.10195 0.252237,-0.23565 0.1651,-1.98967 0.589491,-3.7077 1.295752,-5.25286 0.194734,-0.42757 0.417689,-0.85161 0.661811,-1.26259 0.04692,-0.0783 0.04939,-0.17604 0.0053,-0.25753"
         style="fill:#00854a;fill-opacity:1;fill-rule:nonzero;stroke:none;stroke-width:0.35277778"
         id="path120"
         inkscape:connector-curvature="0" />
      <path
         d="m 97.989814,170.25058 c 0.145344,-0.36477 0.308681,-0.72778 0.487539,-1.07985 -0.04833,-0.0952 -0.09842,-0.19332 -0.149931,-0.29246 -0.149577,-0.28716 -0.305152,-0.58525 -0.422275,-0.90558 -0.505883,-1.38782 -0.859366,-2.82892 -1.017058,-4.13067 l -2.80035,11.14848 h 2.760486 c 0.09384,-1.0227 0.364772,-2.79506 1.141589,-4.73992"
         style="fill:#00854a;fill-opacity:1;fill-rule:nonzero;stroke:none;stroke-width:0.35277778"
         id="path124"
         inkscape:connector-curvature="0" />
    </g>
  </g>
</svg>
